<svg width="30" height="31" viewBox="0 0 30 31" fill="none" xmlns="http://www.w3.org/2000/svg">
<circle cx="15" cy="15.4863" r="15" fill="white"/>
<path d="M8.22154 22.5449H11.3056V12.5605H8.22154V22.5449Z" fill="black"/>
<path d="M7.94116 9.37305C7.94116 10.3574 8.73555 11.1543 9.76359 11.1543C10.7449 11.1543 11.5393 10.3574 11.5393 9.37305C11.5393 8.38867 10.7449 7.54492 9.76359 7.54492C8.73555 7.54492 7.94116 8.38867 7.94116 9.37305Z" fill="black"/>
<path d="M19.8103 22.5449H22.9412V17.0605C22.9412 14.3887 22.3337 12.2793 19.2028 12.2793C17.7075 12.2793 16.6795 13.123 16.2589 13.9199H16.2122V12.5605H13.2683V22.5449H16.3524V17.623C16.3524 16.3105 16.586 15.0449 18.2215 15.0449C19.8103 15.0449 19.8103 16.5449 19.8103 17.6699V22.5449Z" fill="black"/>
</svg>
