<svg width="30" height="31" viewBox="0 0 30 31" fill="none" xmlns="http://www.w3.org/2000/svg">
<circle cx="15" cy="15.4863" r="15" fill="white"/>
<path d="M21.9961 11.9778C22.6854 11.4608 23.3058 10.8404 23.7884 10.1166C23.168 10.3923 22.4442 10.5991 21.7204 10.6681C22.4786 10.22 23.0301 9.53068 23.3058 8.669C22.6165 9.08261 21.8238 9.39281 21.031 9.56514C20.3417 8.84134 19.4111 8.42773 18.3771 8.42773C16.378 8.42773 14.758 10.0477 14.758 12.0468C14.758 12.3225 14.7925 12.5982 14.8614 12.874C11.8628 12.7016 9.1744 11.254 7.38212 9.08261C7.07192 9.59961 6.89959 10.22 6.89959 10.9094C6.89959 12.1502 7.51999 13.2531 8.51953 13.908C7.93359 13.8735 7.34766 13.7356 6.86512 13.4599V13.4944C6.86512 15.2522 8.10593 16.6998 9.76034 17.0445C9.48461 17.1134 9.13994 17.1823 8.82973 17.1823C8.58847 17.1823 8.38166 17.1479 8.1404 17.1134C8.58847 18.561 9.93267 19.595 11.5182 19.6295C10.2773 20.5946 8.72633 21.1805 7.03745 21.1805C6.72725 21.1805 6.45152 21.146 6.17578 21.1116C7.76126 22.1456 9.65694 22.7315 11.725 22.7315C18.3771 22.7315 21.9961 17.2513 21.9961 12.4604C21.9961 12.288 21.9961 12.1502 21.9961 11.9778Z" fill="black"/>
</svg>
