<svg width="126" height="30" viewBox="0 0 126 30" fill="none" xmlns="http://www.w3.org/2000/svg">
<path d="M17.5022 28.0663C15.6181 28.3595 13.7009 28.4474 11.7176 28.6816L5.66825 12.9786V29.3555C3.78415 29.5313 2.0653 29.7656 0.280273 30V0H5.30486L12.1803 17.0217V0H17.5022V28.0663ZM27.9148 10.9863C29.9644 10.9863 33.1046 10.8984 34.9887 10.8984V15.5858C32.6417 15.5858 29.8982 15.5858 27.9148 15.6737V22.6465C31.0221 22.4708 34.1293 22.2362 37.2695 22.1483V26.6597L22.6258 27.6854V0H37.2695V4.68751H27.9148V10.9863ZM56.9375 4.68762H51.4504V26.2501C49.6653 26.2501 47.8803 26.2501 46.1617 26.3085V4.68762H40.6745V0H56.9378L56.9375 4.68762ZM65.5319 10.6642H72.7712V15.3516H65.5319V25.9864H60.3419V0H75.1182V4.68751H65.5319V10.6642ZM83.7126 21.8848C86.7207 21.9432 89.7616 22.1486 92.7037 22.2948V26.9238C87.9769 26.66 83.2499 26.3966 78.4238 26.3085V0H83.7126V21.8848ZM97.1662 27.2461C98.852 27.3341 100.637 27.422 102.356 27.5975V0H97.1662V27.2461ZM125.528 0L118.818 14.2676L125.528 30C123.545 29.7656 121.561 29.4433 119.578 29.1503L115.777 20.4786L111.909 28.4474C109.992 28.1542 108.141 28.0663 106.224 27.8319L113.033 14.0917L106.885 0H112.57L116.041 7.88088L119.743 0H125.528V0Z" fill="#33475B"/>
</svg>
