<svg width="20" height="20" viewBox="0 0 20 20" fill="none" xmlns="http://www.w3.org/2000/svg">
<g clip-path="url(#clip0_15_135)">
<path d="M14.9332 18.1533C14.691 17.88 14.4035 17.6507 14.0925 17.5902C14.0925 17.5883 14.0928 17.5863 14.0928 17.5843C14.0928 17.1021 13.7019 16.7112 13.2196 16.7112H6.8023C6.32007 16.7112 5.92913 17.1021 5.92913 17.5843C5.92913 17.5863 5.9294 17.5882 5.92944 17.5902C5.61843 17.6507 5.33093 17.88 5.0887 18.1533C4.68886 18.6044 5.01015 19.3165 5.61296 19.3165H14.409C15.0117 19.3165 15.333 18.6044 14.9332 18.1533Z" fill="#E2A042"/>
<path d="M19.281 3.36146C18.8157 2.80553 18.133 2.48666 17.4081 2.48666H16.4654V1.35107H3.55676V2.48666H2.59238C1.86742 2.48666 1.18481 2.80549 0.719532 3.36146C0.254259 3.91744 0.0606258 4.64553 0.188399 5.35916L0.943126 9.57537C1.1518 10.7411 2.16281 11.5872 3.34711 11.5872H6.35711C6.44281 11.5872 6.52785 11.5824 6.61211 11.5737C6.99762 12.0119 7.40942 12.443 7.84156 12.8752C8.1557 13.1893 8.43766 13.4483 8.69887 13.6525C8.62625 14.0111 8.54458 14.3678 8.45395 14.7223L8.34059 15.1523C8.29981 15.2942 8.26461 15.4338 8.2216 15.5688C8.17664 15.7039 8.11527 15.8345 8.04707 15.9583C7.97828 16.0822 7.90609 16.1992 7.84719 16.3073C7.79281 16.4028 7.74391 16.5013 7.70074 16.6023C7.68356 16.6462 7.66535 16.6873 7.6534 16.7253C7.64188 16.7633 7.63379 16.7982 7.63086 16.8297C7.61625 16.9558 7.66477 17.0278 7.66477 17.0278C7.90758 17.389 8.3 17.6974 8.81664 17.8944C10.1062 18.3859 11.6812 17.9979 12.3346 17.0278C12.3346 17.0278 12.3831 16.9558 12.3685 16.8297C12.3656 16.7982 12.3575 16.7633 12.346 16.7253C12.3341 16.6873 12.3158 16.6462 12.2986 16.6023C12.2555 16.5013 12.2066 16.4028 12.1522 16.3073C12.0933 16.1992 12.0211 16.0822 11.9523 15.9583C11.8841 15.8345 11.8227 15.7039 11.7778 15.5688C11.7348 15.4338 11.6996 15.2942 11.6588 15.1523L11.5454 14.7223C11.4561 14.3728 11.3754 14.0212 11.3036 13.6677C11.5703 13.4612 11.8585 13.1972 12.1805 12.8752C12.6122 12.4435 13.0235 12.013 13.4086 11.5753C13.4866 11.583 13.5649 11.587 13.6433 11.5872H16.6534C17.8376 11.5872 18.8486 10.7412 19.0574 9.57533L19.812 5.35916C19.9398 4.64557 19.7462 3.9174 19.281 3.36146ZM3.34711 9.92322C3.16445 9.92339 2.98757 9.85923 2.8475 9.742C2.70743 9.62477 2.61311 9.46196 2.58109 9.28213L1.82633 5.06596C1.77063 4.75463 1.90844 4.5335 1.99559 4.42939C2.08274 4.32529 2.27609 4.15064 2.59238 4.15064H3.55773C3.5827 6.50033 4.25617 8.31326 5.3302 9.92322H3.34711ZM18.1741 5.06596L17.4195 9.28213C17.3874 9.46195 17.2931 9.62476 17.153 9.74199C17.0129 9.85922 16.8361 9.9234 16.6534 9.92326H14.692C15.766 8.3133 16.4395 6.50037 16.4644 4.15068H17.4081C17.7244 4.15068 17.9178 4.32533 18.0049 4.42943C18.0921 4.53354 18.2298 4.75463 18.1741 5.06596Z" fill="#FFB636"/>
<path d="M5.21045 19.1908C5.73674 19.7171 7.78123 19.9218 10.0109 19.9218C12.2406 19.9218 14.5177 19.4976 14.8756 19.1397C15.2335 18.7818 12.8809 18.7722 12.8809 18.7722L5.21045 19.1908Z" fill="#E2A042"/>
<path d="M10.0002 2.45063C13.5613 2.45063 16.4482 1.95844 16.4482 1.35129C16.4482 0.744143 13.5613 0.251953 10.0002 0.251953C6.4391 0.251953 3.55225 0.744143 3.55225 1.35129C3.55225 1.95844 6.4391 2.45063 10.0002 2.45063Z" fill="#FFD469"/>
<path d="M14.3164 7.47838C14.2397 7.47838 14.1617 7.46459 14.0857 7.43545C13.7534 7.30799 13.5873 6.93521 13.7148 6.60287C14.1921 5.35853 14.1472 4.63853 14.0997 3.87631C14.0776 3.52103 14.3477 3.21506 14.7029 3.19291C15.0589 3.17088 15.3641 3.44088 15.3863 3.79611C15.4485 4.79455 15.4536 5.66916 14.9183 7.06447C14.82 7.32092 14.5756 7.47838 14.3164 7.47838Z" fill="#FFD469"/>
</g>
<defs>
<clipPath id="clip0_15_135">
<rect width="20" height="20" fill="white"/>
</clipPath>
</defs>
</svg>
